<svg viewBox="0 0 640 400" data-background-color="#ffffff" preserveAspectRatio="xMidYMid meet" height="400" width="640" xmlns="http://www.w3.org/2000/svg" xmlns:xlink="http://www.w3.org/1999/xlink"><rect width="640" height="400" x="0" y="0" opacity="1" fill="#ffffff" data-fill-palette-color="background" id="background"></rect><g id="tight-bounds" transform="matrix(1,0,0,1,122.24000000000001,145.3257647237163)"><svg viewBox="0 0 395.52 109.34847055256738" height="109.34847055256738" width="395.52"><g><svg viewBox="0 0 631.6671301861419 174.6355041064525" height="109.34847055256738" width="395.52"><g transform="matrix(1,0,0,1,0,24.13558703642)"><svg viewBox="0 0 395.52 126.36433003361249" height="126.36433003361249" width="395.52"><g><svg viewBox="0 0 395.52 126.36433003361249" height="126.36433003361249" width="395.52"><g><svg viewBox="0 0 395.52 85.98260869565216" height="85.98260869565216" width="395.52"><g transform="matrix(1,0,0,1,0,0)"><svg width="395.52" viewBox="1.0499999523162842 -33.08000183105469 154.97000122070312 33.69000244140625" height="85.98260869565216" data-palette-color="#c8c8c8"><g class="undefined-text-0" data-fill-palette-color="primary" id="text-0"><path d="M15.92-27L15.92 0.15Q14.75 0 9.89 0L9.89 0 9.11 0 9.11-27 4.27-27Q2.12-27 1.73-26.78 1.34-26.56 1.12-26.39L1.12-26.39 1.05-26.42 1.05-32.67 1.12-32.74Q1.93-32.47 5.47-32.47L5.47-32.47 20.78-32.47Q22.92-32.47 23.32-32.69 23.71-32.91 23.93-33.08L23.93-33.08 24-33.06 24-26.81 23.93-26.73Q23.12-27 19.58-27L19.58-27 15.92-27ZM31.91-3.86Q29.68-5.98 28.4-8.96 27.12-11.94 27.12-15.49 27.12-19.04 28.32-22.22 29.51-25.39 31.74-27.81 33.96-30.22 37.11-31.65 40.26-33.08 44.16-33.08L44.16-33.08Q50.9-33.08 55.52-28.83L55.52-28.83Q60.45-24.29 60.45-16.58L60.45-16.58Q60.45-9.11 55.37-4.15L55.37-4.15Q52.24-1.1 47.92 0.05L47.92 0.05Q45.8 0.61 42.95 0.61 40.11 0.61 37.12-0.56 34.13-1.73 31.91-3.86ZM33.91-15.82L33.91-15.82Q33.91-13.55 34.67-11.65 35.42-9.74 36.77-8.37L36.77-8.37Q39.62-5.49 44.11-5.49L44.11-5.49Q48.39-5.49 50.97-8.25L50.97-8.25Q53.61-11.11 53.61-16.04L53.61-16.04Q53.61-20.68 51.1-23.78L51.1-23.78Q48.39-27.1 43.67-27.1L43.67-27.1Q39.11-27.1 36.42-23.73L36.42-23.73Q33.91-20.58 33.91-15.82ZM79.93-12.21L69.89-12.21Q68.04-12.21 66.87-12.08L66.87-12.08 66.94-18.12Q67.5-17.97 70.16-17.97L70.16-17.97 79.66-17.97Q82.34-17.97 82.88-18.12L82.88-18.12 82.95-12.08Q81.78-12.21 79.93-12.21L79.93-12.21ZM99.43 0.61L99.43 0.61Q95.48 0.61 91.98-0.02L91.98-0.02 91.98-32.69Q95.21-33.08 99.47-33.08 103.73-33.08 107.18-31.92 110.64-30.76 112.96-28.61L112.96-28.61Q117.64-24.32 117.64-16.58L117.64-16.58Q117.64-7.91 112.42-3.42L112.42-3.42Q107.73 0.61 99.43 0.61ZM98.33-27.1L98.33-5.35Q99.92-5.05 101.51-5.05 103.09-5.05 104.92-5.68 106.76-6.3 108.1-7.62L108.1-7.62Q110.98-10.4 110.98-15.72L110.98-15.72Q110.98-24.46 104.61-26.46L104.61-26.46Q102.51-27.12 99.75-27.12L99.75-27.12 99.09-27.12Q98.72-27.12 98.33-27.1L98.33-27.1ZM127.48-3.86Q125.26-5.98 123.98-8.96 122.7-11.94 122.7-15.49 122.7-19.04 123.89-22.22 125.09-25.39 127.31-27.81 129.53-30.22 132.68-31.65 135.83-33.08 139.74-33.08L139.74-33.08Q146.47-33.08 151.09-28.83L151.09-28.83Q156.02-24.29 156.02-16.58L156.02-16.58Q156.02-9.11 150.94-4.15L150.94-4.15Q147.82-1.1 143.5 0.05L143.5 0.05Q141.37 0.61 138.53 0.61 135.68 0.61 132.69-0.56 129.7-1.73 127.48-3.86ZM129.48-15.82L129.48-15.82Q129.48-13.55 130.24-11.65 131-9.74 132.34-8.37L132.34-8.37Q135.2-5.49 139.69-5.49L139.69-5.49Q143.96-5.49 146.55-8.25L146.55-8.25Q149.18-11.11 149.18-16.04L149.18-16.04Q149.18-20.68 146.67-23.78L146.67-23.78Q143.96-27.1 139.25-27.1L139.25-27.1Q134.68-27.1 132-23.73L132-23.73Q129.48-20.58 129.48-15.82Z" fill="#c8c8c8" data-fill-palette-color="primary"></path></g></svg></g></svg></g><g transform="matrix(1,0,0,1,163.31020800000002,106.28103902608694)"><svg viewBox="0 0 232.20979199999996 20.083291007525553" height="20.083291007525553" width="232.20979199999996"><g transform="matrix(1,0,0,1,0,0)"><svg width="232.20979199999996" viewBox="1.9500000476837158 -37.900001525878906 445.1099853515625 38.5" height="20.083291007525553" data-palette-color="#c8c8c8"><path d="M9.7 0L9.7-1.75 14.65-1.75 14.65-33.05 4.55-33.05 4.55-26.9 1.95-26.9 1.95-34.9 30.4-34.9 30.4-26.9 27.8-26.9 27.8-33.05 17.7-33.05 17.7-1.75 22.65-1.75 22.65 0 9.7 0ZM33.7 0L33.7-1.75 37.6-1.75 37.6-23.2 33.7-23.7 33.7-25 40.45-26.1 40.45-21.35 40.65-21.35Q41-22.2 41.57-23.08 42.15-23.95 42.97-24.65 43.8-25.35 44.9-25.78 46-26.2 47.4-26.2L47.4-26.2Q49.25-26.2 50.32-25.38 51.4-24.55 51.4-22.95L51.4-22.95Q51.4-21.8 50.8-21.15 50.2-20.5 49.25-20.5L49.25-20.5Q48.15-20.5 47.52-21.08 46.9-21.65 46.9-22.6L46.9-22.6Q46.9-23.35 47.25-23.85 47.6-24.35 48-24.45L48-24.45 48-24.55Q47.6-24.6 47.35-24.6 47.1-24.6 46.8-24.6L46.8-24.6Q45.7-24.6 44.57-24.05 43.45-23.5 42.55-22.6 41.65-21.7 41.07-20.55 40.5-19.4 40.5-18.2L40.5-18.2 40.5-1.75 45.45-1.75 45.45 0 33.7 0ZM66.8 0.6L66.8 0.6Q62.3 0.6 60.25-1.83 58.2-4.25 58.2-9.1L58.2-9.1 58.2-23.2 54.3-23.7 54.3-25 61.1-26.1 61.1-9.4Q61.1-5.35 62.77-3.43 64.45-1.5 67.8-1.5L67.8-1.5Q69.05-1.5 70.27-1.85 71.5-2.2 72.42-2.9 73.34-3.6 73.92-4.7 74.5-5.8 74.5-7.25L74.5-7.25 74.5-23.2 70.59-23.7 70.59-25 77.4-26.1 77.4-2.4 81.3-1.9 81.3-0.6 74.59 0.5 74.59-4 74.4-4Q74.09-3.15 73.47-2.33 72.84-1.5 71.9-0.85 70.95-0.2 69.67 0.2 68.4 0.6 66.8 0.6ZM95.14 0.6L95.14 0.6Q92.49 0.6 90.77-0.38 89.04-1.35 88.34-2.65L88.34-2.65 88.19-2.65 88.19 0 85.99 0 85.99-7.55 88.19-7.55 88.19-6.2Q88.19-3.85 89.89-2.55 91.59-1.25 94.69-1.25L94.69-1.25Q97.84-1.25 99.54-2.45 101.24-3.65 101.24-6.15L101.24-6.15Q101.24-8.3 99.97-9.5 98.69-10.7 96.19-11.25L96.19-11.25 93.54-11.8Q90.04-12.6 88.12-14.33 86.19-16.05 86.19-19.35L86.19-19.35Q86.19-22.65 88.52-24.43 90.84-26.2 94.59-26.2L94.59-26.2Q97.19-26.2 98.77-25.35 100.34-24.5 100.89-23.25L100.89-23.25 101.09-23.25 101.09-25.6 103.29-25.6 103.29-18.05 101.09-18.05 101.09-19.85Q101.09-22.1 99.52-23.23 97.94-24.35 94.94-24.35L94.94-24.35Q92.14-24.35 90.54-23.23 88.94-22.1 88.94-19.8L88.94-19.8Q88.94-17.6 90.27-16.43 91.59-15.25 93.99-14.7L93.99-14.7 96.54-14.15Q100.19-13.35 102.12-11.65 104.04-9.95 104.04-6.65L104.04-6.65Q104.04-3.45 101.69-1.43 99.34 0.6 95.14 0.6ZM116.09 0.2L116.09 0.2Q113.99 0.2 113.22-0.58 112.44-1.35 112.44-3.25L112.44-3.25 112.44-23.75 109.04-23.75 109.04-25.6 109.79-25.6Q111.54-25.6 112.12-26.1 112.69-26.6 112.89-27.75L112.89-27.75 113.64-32.5 115.34-32.5 115.34-25.6 122.19-25.6 122.19-23.75 115.34-23.75 115.34-1.85 122.19-1.85 122.19-0.5Q121.74-0.35 120.99-0.23 120.24-0.1 119.39 0 118.54 0.1 117.67 0.15 116.79 0.2 116.09 0.2ZM144.69 0.2L144.69 0.2Q142.59 0.2 141.81-0.58 141.04-1.35 141.04-3.25L141.04-3.25 141.04-23.75 137.64-23.75 137.64-25.6 138.39-25.6Q140.14-25.6 140.71-26.1 141.29-26.6 141.49-27.75L141.49-27.75 142.24-32.5 143.94-32.5 143.94-25.6 150.79-25.6 150.79-23.75 143.94-23.75 143.94-1.85 150.79-1.85 150.79-0.5Q150.34-0.35 149.59-0.23 148.84-0.1 147.99 0 147.14 0.1 146.26 0.15 145.39 0.2 144.69 0.2ZM166.13-1.25L166.13-1.25Q168.13-1.25 169.63-1.95 171.13-2.65 172.16-3.88 173.18-5.1 173.68-6.83 174.18-8.55 174.18-10.65L174.18-10.65 174.18-14.95Q174.18-17.05 173.68-18.78 173.18-20.5 172.16-21.73 171.13-22.95 169.63-23.65 168.13-24.35 166.13-24.35L166.13-24.35Q164.13-24.35 162.63-23.65 161.13-22.95 160.11-21.73 159.08-20.5 158.58-18.78 158.08-17.05 158.08-14.95L158.08-14.95 158.08-10.65Q158.08-8.55 158.58-6.83 159.08-5.1 160.11-3.88 161.13-2.65 162.63-1.95 164.13-1.25 166.13-1.25ZM166.13 0.6L166.13 0.6Q163.53 0.6 161.46-0.3 159.38-1.2 157.91-2.93 156.43-4.65 155.63-7.15 154.83-9.65 154.83-12.8L154.83-12.8Q154.83-15.95 155.63-18.43 156.43-20.9 157.91-22.63 159.38-24.35 161.46-25.28 163.53-26.2 166.13-26.2L166.13-26.2Q168.73-26.2 170.81-25.28 172.88-24.35 174.36-22.63 175.83-20.9 176.63-18.43 177.43-15.95 177.43-12.8L177.43-12.8Q177.43-9.65 176.63-7.15 175.83-4.65 174.36-2.93 172.88-1.2 170.81-0.3 168.73 0.6 166.13 0.6ZM194.23 0L194.23-1.75 198.18-1.75 198.18-33.15 194.23-33.15 194.23-34.9 210.38-34.9Q214.88-34.9 217.33-32.52 219.78-30.15 219.78-25.7L219.78-25.7Q219.78-21.9 217.7-19.48 215.63-17.05 211.58-16.65L211.58-16.65 217.73-5.15Q219.48-1.75 222.93-1.75L222.93-1.75 223.68-1.75 223.68 0 221.23 0Q218.73 0 217.35-1.07 215.98-2.15 214.88-4.2L214.88-4.2 208.43-16.25 201.23-16.25 201.23-1.75 205.18-1.75 205.18 0 194.23 0ZM201.23-33.05L201.23-18.1 210.13-18.1Q211.68-18.1 212.88-18.63 214.08-19.15 214.88-20.03 215.68-20.9 216.1-22.05 216.53-23.2 216.53-24.5L216.53-24.5 216.53-26.65Q216.53-27.95 216.1-29.1 215.68-30.25 214.88-31.13 214.08-32 212.88-32.52 211.68-33.05 210.13-33.05L210.13-33.05 201.23-33.05ZM237.88 0.6L237.88 0.6Q232.68 0.6 229.63-2.9 226.58-6.4 226.58-12.8L226.58-12.8Q226.58-15.85 227.4-18.35 228.23-20.85 229.73-22.58 231.23-24.3 233.28-25.25 235.33-26.2 237.78-26.2L237.78-26.2Q240.18-26.2 242.1-25.3 244.03-24.4 245.38-22.83 246.73-21.25 247.45-19.03 248.18-16.8 248.18-14.2L248.18-14.2 248.18-13.35 229.78-13.35 229.78-11.75Q229.78-6.9 232.13-4.3 234.48-1.7 238.28-1.7L238.28-1.7Q241.43-1.7 243.4-3.1 245.38-4.5 246.43-6.55L246.43-6.55 247.68-5.8Q247.18-4.6 246.33-3.45 245.48-2.3 244.25-1.4 243.03-0.5 241.45 0.05 239.88 0.6 237.88 0.6ZM229.78-15.4L229.78-15.05 245.13-15.05 245.13-15.35Q245.13-17.3 244.68-18.95 244.23-20.6 243.3-21.83 242.38-23.05 241-23.73 239.63-24.4 237.78-24.4L237.78-24.4Q235.93-24.4 234.45-23.75 232.98-23.1 231.93-21.9 230.88-20.7 230.33-19.05 229.78-17.4 229.78-15.4L229.78-15.4ZM252.92 0L252.92-1.75 256.82-1.75 256.82-23.2 252.92-23.7 252.92-25 259.67-26.1 259.67-21.6 259.87-21.6Q260.17-22.45 260.8-23.28 261.42-24.1 262.32-24.75 263.22-25.4 264.47-25.8 265.72-26.2 267.32-26.2L267.32-26.2Q273.67-26.2 275.22-20.85L275.22-20.85 275.37-20.85Q275.72-21.9 276.4-22.85 277.07-23.8 278.05-24.55 279.02-25.3 280.35-25.75 281.67-26.2 283.37-26.2L283.37-26.2Q287.87-26.2 289.9-23.78 291.92-21.35 291.92-16.5L291.92-16.5 291.92-1.75 295.82-1.75 295.82 0 285.12 0 285.12-1.75 289.02-1.75 289.02-16.25Q289.02-20.3 287.37-22.2 285.72-24.1 282.42-24.1L282.42-24.1Q281.12-24.1 279.95-23.75 278.77-23.4 277.85-22.68 276.92-21.95 276.37-20.85 275.82-19.75 275.82-18.3L275.82-18.3 275.82-1.75 279.72-1.75 279.72 0 269.02 0 269.02-1.75 272.92-1.75 272.92-16.25Q272.92-20.3 271.3-22.2 269.67-24.1 266.37-24.1L266.37-24.1Q265.07-24.1 263.87-23.75 262.67-23.4 261.75-22.68 260.82-21.95 260.27-20.85 259.72-19.75 259.72-18.3L259.72-18.3 259.72-1.75 263.62-1.75 263.62 0 252.92 0ZM311.27 0.6L311.27 0.6Q306.07 0.6 303.02-2.9 299.97-6.4 299.97-12.8L299.97-12.8Q299.97-15.85 300.8-18.35 301.62-20.85 303.12-22.58 304.62-24.3 306.67-25.25 308.72-26.2 311.17-26.2L311.17-26.2Q313.57-26.2 315.5-25.3 317.42-24.4 318.77-22.83 320.12-21.25 320.85-19.03 321.57-16.8 321.57-14.2L321.57-14.2 321.57-13.35 303.17-13.35 303.17-11.75Q303.17-6.9 305.52-4.3 307.87-1.7 311.67-1.7L311.67-1.7Q314.82-1.7 316.8-3.1 318.77-4.5 319.82-6.55L319.82-6.55 321.07-5.8Q320.57-4.6 319.72-3.45 318.87-2.3 317.65-1.4 316.42-0.5 314.85 0.05 313.27 0.6 311.27 0.6ZM303.17-15.4L303.17-15.05 318.52-15.05 318.52-15.35Q318.52-17.3 318.07-18.95 317.62-20.6 316.69-21.83 315.77-23.05 314.4-23.73 313.02-24.4 311.17-24.4L311.17-24.4Q309.32-24.4 307.85-23.75 306.37-23.1 305.32-21.9 304.27-20.7 303.72-19.05 303.17-17.4 303.17-15.4L303.17-15.4ZM326.32 0L326.32-1.75 330.22-1.75 330.22-23.2 326.32-23.7 326.32-25 333.07-26.1 333.07-21.6 333.27-21.6Q333.57-22.45 334.19-23.28 334.82-24.1 335.72-24.75 336.62-25.4 337.87-25.8 339.12-26.2 340.72-26.2L340.72-26.2Q347.07-26.2 348.62-20.85L348.62-20.85 348.77-20.85Q349.12-21.9 349.79-22.85 350.47-23.8 351.44-24.55 352.42-25.3 353.74-25.75 355.07-26.2 356.77-26.2L356.77-26.2Q361.27-26.2 363.29-23.78 365.32-21.35 365.32-16.5L365.32-16.5 365.32-1.75 369.22-1.75 369.22 0 358.52 0 358.52-1.75 362.42-1.75 362.42-16.25Q362.42-20.3 360.77-22.2 359.12-24.1 355.82-24.1L355.82-24.1Q354.52-24.1 353.34-23.75 352.17-23.4 351.24-22.68 350.32-21.95 349.77-20.85 349.22-19.75 349.22-18.3L349.22-18.3 349.22-1.75 353.12-1.75 353.12 0 342.42 0 342.42-1.75 346.32-1.75 346.32-16.25Q346.32-20.3 344.69-22.2 343.07-24.1 339.77-24.1L339.77-24.1Q338.47-24.1 337.27-23.75 336.07-23.4 335.14-22.68 334.22-21.95 333.67-20.85 333.12-19.75 333.12-18.3L333.12-18.3 333.12-1.75 337.02-1.75 337.02 0 326.32 0ZM386.82 0.6L386.82 0.6Q383.62 0.6 381.67-0.78 379.72-2.15 378.87-4L378.87-4 378.67-4 377.22 0 375.87 0 375.87-35 371.97-35.5 371.97-36.8 378.77-37.9 378.77-21.55 378.97-21.55Q379.82-23.45 381.74-24.83 383.67-26.2 386.82-26.2L386.82-26.2Q391.72-26.2 394.54-22.8 397.37-19.4 397.37-12.8L397.37-12.8Q397.37-6.2 394.54-2.8 391.72 0.6 386.82 0.6ZM386.07-1.5L386.07-1.5Q389.97-1.5 392.09-4.08 394.22-6.65 394.22-11.05L394.22-11.05 394.22-14.55Q394.22-18.95 392.09-21.53 389.97-24.1 386.07-24.1L386.07-24.1Q384.67-24.1 383.37-23.7 382.07-23.3 381.04-22.55 380.02-21.8 379.39-20.75 378.77-19.7 378.77-18.35L378.77-18.35 378.77-7.25Q378.77-5.9 379.39-4.85 380.02-3.8 381.04-3.05 382.07-2.3 383.37-1.9 384.67-1.5 386.07-1.5ZM414.31 0.6L414.31 0.6Q409.11 0.6 406.06-2.9 403.01-6.4 403.01-12.8L403.01-12.8Q403.01-15.85 403.84-18.35 404.66-20.85 406.16-22.58 407.66-24.3 409.71-25.25 411.76-26.2 414.21-26.2L414.21-26.2Q416.61-26.2 418.54-25.3 420.46-24.4 421.81-22.83 423.16-21.25 423.89-19.03 424.61-16.8 424.61-14.2L424.61-14.2 424.61-13.35 406.21-13.35 406.21-11.75Q406.21-6.9 408.56-4.3 410.91-1.7 414.71-1.7L414.71-1.7Q417.86-1.7 419.84-3.1 421.81-4.5 422.86-6.55L422.86-6.55 424.11-5.8Q423.61-4.6 422.76-3.45 421.91-2.3 420.69-1.4 419.46-0.5 417.89 0.05 416.31 0.6 414.31 0.6ZM406.21-15.4L406.21-15.05 421.56-15.05 421.56-15.35Q421.56-17.3 421.11-18.95 420.66-20.6 419.74-21.83 418.81-23.05 417.44-23.73 416.06-24.4 414.21-24.4L414.21-24.4Q412.36-24.4 410.89-23.75 409.41-23.1 408.36-21.9 407.31-20.7 406.76-19.05 406.21-17.4 406.21-15.4L406.21-15.4ZM429.36 0L429.36-1.75 433.26-1.75 433.26-23.2 429.36-23.7 429.36-25 436.11-26.1 436.11-21.35 436.31-21.35Q436.66-22.2 437.24-23.08 437.81-23.95 438.64-24.65 439.46-25.35 440.56-25.78 441.66-26.2 443.06-26.2L443.06-26.2Q444.91-26.2 445.99-25.38 447.06-24.55 447.06-22.95L447.06-22.95Q447.06-21.8 446.46-21.15 445.86-20.5 444.91-20.5L444.91-20.5Q443.81-20.5 443.19-21.08 442.56-21.65 442.56-22.6L442.56-22.6Q442.56-23.35 442.91-23.85 443.26-24.35 443.66-24.45L443.66-24.45 443.66-24.55Q443.26-24.6 443.01-24.6 442.76-24.6 442.46-24.6L442.46-24.6Q441.36-24.6 440.24-24.05 439.11-23.5 438.21-22.6 437.31-21.7 436.74-20.55 436.16-19.4 436.16-18.2L436.16-18.2 436.16-1.75 441.11-1.75 441.11 0 429.36 0Z" opacity="1" transform="matrix(1,0,0,1,0,0)" fill="#c8c8c8" class="undefined-text-1" data-fill-palette-color="secondary" id="text-1"></path></svg></g></svg></g></svg></g></svg></g><g transform="matrix(1,0,0,1,415.81843033043475,0)"><svg viewBox="0 0 215.84869985570717 174.6355041064525" height="174.6355041064525" width="215.84869985570717"><g><svg xmlns="http://www.w3.org/2000/svg" xmlns:xlink="http://www.w3.org/1999/xlink" version="1.1" x="0" y="0" viewBox="20.191999435424805 25.882999420166016 59.61700439453125 48.2339973449707" enable-background="new 0 0 100 100" xml:space="preserve" height="174.6355041064525" width="215.84869985570717" class="icon-icon-0" data-fill-palette-color="accent" id="icon-0"><path fill="#c8c8c8" d="M23.313 74.117h53.375c1.721 0 3.121-1.4 3.121-3.121V29.004c0-1.721-1.4-3.121-3.121-3.121H23.313c-1.721 0-3.121 1.4-3.121 3.121v41.993C20.192 72.717 21.592 74.117 23.313 74.117zM77.308 29.004v41.993c0 0.336-0.284 0.621-0.621 0.621H51.25V28.383h25.438C77.024 28.383 77.308 28.667 77.308 29.004zM22.692 29.004c0-0.336 0.284-0.621 0.621-0.621H48.75v43.234H23.313c-0.336 0-0.621-0.284-0.621-0.621V29.004z" data-fill-palette-color="accent"></path><path fill="#c8c8c8" d="M27.766 43.279h16.609c0.69 0 1.25-0.56 1.25-1.25s-0.56-1.25-1.25-1.25H27.766c-0.69 0-1.25 0.56-1.25 1.25S27.075 43.279 27.766 43.279z" data-fill-palette-color="accent"></path><path fill="#c8c8c8" d="M27.766 48.96h16.609c0.69 0 1.25-0.56 1.25-1.25s-0.56-1.25-1.25-1.25H27.766c-0.69 0-1.25 0.56-1.25 1.25S27.075 48.96 27.766 48.96z" data-fill-palette-color="accent"></path><path fill="#c8c8c8" d="M27.766 54.641h16.609c0.69 0 1.25-0.56 1.25-1.25s-0.56-1.25-1.25-1.25H27.766c-0.69 0-1.25 0.56-1.25 1.25S27.075 54.641 27.766 54.641z" data-fill-palette-color="accent"></path><path fill="#c8c8c8" d="M27.766 60.321h16.609c0.69 0 1.25-0.56 1.25-1.25s-0.56-1.25-1.25-1.25H27.766c-0.69 0-1.25 0.56-1.25 1.25S27.075 60.321 27.766 60.321z" data-fill-palette-color="accent"></path><path fill="#c8c8c8" d="M27.766 66.002h16.609c0.69 0 1.25-0.56 1.25-1.25s-0.56-1.25-1.25-1.25H27.766c-0.69 0-1.25 0.56-1.25 1.25S27.075 66.002 27.766 66.002z" data-fill-palette-color="accent"></path><path fill="#c8c8c8" d="M27.766 37.599h16.609c0.69 0 1.25-0.56 1.25-1.25s-0.56-1.25-1.25-1.25H27.766c-0.69 0-1.25 0.56-1.25 1.25S27.075 37.599 27.766 37.599z" data-fill-palette-color="accent"></path><path fill="#c8c8c8" d="M56.098 65.46c0.182 0.095 0.381 0.142 0.579 0.142 0.286 0 0.57-0.098 0.799-0.289l3.945-3.279c0.126-0.105 0.231-0.234 0.308-0.38l11.534-21.95 0 0 0 0 1.969-3.748c0.321-0.611 0.086-1.367-0.525-1.688l-3.505-1.842c-0.294-0.154-0.637-0.186-0.953-0.087-0.317 0.098-0.581 0.318-0.735 0.612L56.01 58.649c-0.078 0.147-0.125 0.309-0.139 0.475l-0.439 5.122C55.388 64.748 55.651 65.227 56.098 65.46zM71.145 35.222l1.292 0.679-0.806 1.535-1.292-0.68L71.145 35.222zM58.34 59.589l10.836-20.621 1.292 0.68L59.631 60.271l-1.454 1.208L58.34 59.589z" data-fill-palette-color="accent"></path></svg></g></svg></g></svg></g></svg><rect width="395.52" height="109.34847055256738" fill="none" stroke="none" visibility="hidden"></rect></g><defs></defs></svg>